<svg height="500" preserveAspectRatio="xMidYMid meet" version="1.0"
     viewBox="0 0 375 374.999991" width="500" xmlns="http://www.w3.org/2000/svg" zoomAndPan="magnify">
    <defs>
        <g/>
        <clipPath id="aeb73be9e8">
            <path
                clip-rule="nonzero"
                d="M 198 128.445312 L 222.578125 128.445312 L 222.578125 171.195312 L 198 171.195312 Z M 198 128.445312 "/>
        </clipPath>
        <clipPath id="bc92f74187">
            <path clip-rule="nonzero" d="M 178.328125 131 L 197 131 L 197 164 L 178.328125 164 Z M 178.328125 131 "/>
        </clipPath>
        <clipPath id="885bfb41cb">
            <path
                clip-rule="nonzero"
                d="M 182.789062 131.066406 C 182.375 133.140625 183.410156 135.277344 184.902344 136.769531 C 186.394531 138.257812 188.304688 139.253906 190.125 140.320312 C 191.949219 141.382812 193.765625 142.597656 194.914062 144.371094 C 195.914062 145.914062 196.316406 147.765625 196.527344 149.589844 C 196.78125 151.800781 196.746094 154.125 196.042969 156.210938 C 195.53125 154.957031 194.863281 153.75 194.101562 152.628906 C 192.609375 150.421875 190.773438 148.46875 188.949219 146.53125 C 186.8125 144.265625 184.679688 142 182.542969 139.734375 C 184.753906 143.878906 188.179688 147.214844 191.078125 150.914062 C 193.972656 154.613281 196.441406 159.027344 196.171875 163.714844 C 195.957031 161.316406 194.007812 159.414062 191.898438 158.253906 C 189.785156 157.09375 187.417969 156.445312 185.332031 155.234375 C 181.394531 152.929688 178.746094 148.5625 178.542969 144.011719 C 178.335938 139.40625 180.4375 135.03125 182.789062 131.066406 Z M 182.789062 131.066406 "/>
        </clipPath>
        <linearGradient gradientTransform="matrix(-0.0429867, 0, 0, 0.0429867, 135.834168, 128.445587)"
                        gradientUnits="userSpaceOnUse"
                        id="c0e29922ee" x1="-1204.20996" x2="-1204.20996" y1="60.999773" y2="820.499829">
            <stop offset="0" stop-color="rgb(83.338928%, 9.405518%, 10.420227%)" stop-opacity="1"/>
            <stop offset="0.0625" stop-color="rgb(83.204651%, 9.492493%, 10.539246%)" stop-opacity="1"/>
            <stop offset="0.125" stop-color="rgb(82.937622%, 9.666443%, 10.778809%)" stop-opacity="1"/>
            <stop offset="0.1875" stop-color="rgb(82.670593%, 9.840393%, 11.016846%)" stop-opacity="1"/>
            <stop offset="0.25" stop-color="rgb(82.402039%, 10.014343%, 11.256409%)" stop-opacity="1"/>
            <stop offset="0.3125" stop-color="rgb(82.13501%, 10.188293%, 11.495972%)" stop-opacity="1"/>
            <stop offset="0.375" stop-color="rgb(81.867981%, 10.362244%, 11.735535%)" stop-opacity="1"/>
            <stop offset="0.4375" stop-color="rgb(81.600952%, 10.536194%, 11.973572%)" stop-opacity="1"/>
            <stop offset="0.5" stop-color="rgb(81.332397%, 10.710144%, 12.213135%)" stop-opacity="1"/>
            <stop offset="0.5625" stop-color="rgb(81.065369%, 10.884094%, 12.452698%)" stop-opacity="1"/>
            <stop offset="0.625" stop-color="rgb(80.79834%, 11.058044%, 12.692261%)" stop-opacity="1"/>
            <stop offset="0.6875" stop-color="rgb(80.531311%, 11.231995%, 12.930298%)" stop-opacity="1"/>
            <stop offset="0.75" stop-color="rgb(80.262756%, 11.405945%, 13.169861%)" stop-opacity="1"/>
            <stop offset="0.8125" stop-color="rgb(79.995728%, 11.579895%, 13.409424%)" stop-opacity="1"/>
            <stop offset="0.875" stop-color="rgb(79.728699%, 11.753845%, 13.648987%)" stop-opacity="1"/>
            <stop offset="0.9375" stop-color="rgb(79.46167%, 11.927795%, 13.887024%)" stop-opacity="1"/>
            <stop offset="1" stop-color="rgb(79.193115%, 12.103271%, 14.126587%)" stop-opacity="1"/>
        </linearGradient>
    </defs>
    <g fill="#ffffff" fill-opacity="1">
        <g transform="translate(106.085249, 210.214069)">
            <g>
                <path
                    d="M 0.59375 -49.5625 L 0.59375 -61.953125 L 44.15625 -61.953125 L 44.15625 -49.5625 L 29.4375 -49.5625 L 29.4375 0 L 15.3125 0 L 15.3125 -49.5625 Z M 0.59375 -49.5625 "/>
            </g>
        </g>
    </g>
    <g fill="#ffffff" fill-opacity="1">
        <g transform="translate(144.454767, 210.214069)">
            <g>
                <path
                    d="M 4.5 0 L 4.5 -38.515625 L 17.796875 -38.515625 L 17.796875 -32.96875 L 17.953125 -32.96875 C 18.046875 -33.164062 18.203125 -33.414062 18.421875 -33.71875 C 18.648438 -34.019531 19.140625 -34.546875 19.890625 -35.296875 C 20.648438 -36.046875 21.453125 -36.71875 22.296875 -37.3125 C 23.148438 -37.914062 24.253906 -38.457031 25.609375 -38.9375 C 26.960938 -39.414062 28.335938 -39.65625 29.734375 -39.65625 C 31.191406 -39.65625 32.617188 -39.453125 34.015625 -39.046875 C 35.421875 -38.648438 36.445312 -38.25 37.09375 -37.84375 L 38.140625 -37.25 L 32.59375 -25.984375 C 30.9375 -27.378906 28.632812 -28.078125 25.6875 -28.078125 C 24.082031 -28.078125 22.703125 -27.726562 21.546875 -27.03125 C 20.398438 -26.332031 19.585938 -25.484375 19.109375 -24.484375 C 18.628906 -23.484375 18.289062 -22.628906 18.09375 -21.921875 C 17.894531 -21.222656 17.796875 -20.675781 17.796875 -20.28125 L 17.796875 0 Z M 4.5 0 "/>
            </g>
        </g>
    </g>
    <g fill="#ffffff" fill-opacity="1">
        <g transform="translate(175.465581, 210.214069)">
            <g>
                <path
                    d="M 7.140625 -4.765625 C 3.535156 -8.691406 1.734375 -13.507812 1.734375 -19.21875 C 1.734375 -24.925781 3.535156 -29.757812 7.140625 -33.71875 C 10.742188 -37.675781 15.320312 -39.65625 20.875 -39.65625 C 25.976562 -39.65625 30.179688 -38.050781 33.484375 -34.84375 L 33.484375 -38.515625 L 46.78125 -38.515625 L 46.78125 0 L 33.640625 0 L 33.640625 -4.359375 L 33.484375 -4.359375 C 30.179688 -0.703125 25.976562 1.125 20.875 1.125 C 15.320312 1.125 10.742188 -0.835938 7.140625 -4.765625 Z M 18.4375 -25.75 C 16.707031 -24.050781 15.84375 -21.875 15.84375 -19.21875 C 15.84375 -16.570312 16.664062 -14.410156 18.3125 -12.734375 C 19.96875 -11.054688 22.148438 -10.21875 24.859375 -10.21875 C 27.460938 -10.21875 29.601562 -11.066406 31.28125 -12.765625 C 32.957031 -14.460938 33.796875 -16.613281 33.796875 -19.21875 C 33.796875 -21.875 32.929688 -24.050781 31.203125 -25.75 C 29.472656 -27.457031 27.359375 -28.3125 24.859375 -28.3125 C 22.304688 -28.3125 20.164062 -27.457031 18.4375 -25.75 Z M 18.4375 -25.75 "/>
            </g>
        </g>
    </g>
    <g fill="#ffffff" fill-opacity="1">
        <g transform="translate(220.367804, 210.214069)">
            <g>
                <path
                    d="M 48.515625 -38.515625 L 30.1875 -20.125 L 50.3125 0 L 33.1875 0 L 17.796875 -15.390625 L 17.796875 0 L 4.5 0 L 4.5 -64.578125 L 17.796875 -64.578125 L 17.796875 -25.078125 L 31.234375 -38.515625 Z M 48.515625 -38.515625 "/>
            </g>
        </g>
    </g>
    <g clip-path="url(#aeb73be9e8)">
        <path
            d="M 216.429688 128.445312 C 216.976562 131.179688 215.609375 134 213.640625 135.96875 C 211.671875 137.941406 209.152344 139.25 206.75 140.652344 C 204.34375 142.058594 201.9375 143.664062 200.429688 146.003906 C 199.113281 148.042969 198.578125 150.484375 198.300781 152.890625 C 197.957031 155.816406 198.003906 158.878906 198.933594 161.632812 C 199.609375 159.972656 200.492188 158.386719 201.492188 156.902344 C 203.460938 153.984375 205.886719 151.410156 208.296875 148.847656 C 211.117188 145.855469 213.933594 142.867188 216.753906 139.875 C 213.832031 145.34375 209.3125 149.753906 205.488281 154.632812 C 201.667969 159.515625 198.410156 165.34375 198.765625 171.535156 C 199.050781 168.367188 201.621094 165.851562 204.410156 164.320312 C 207.199219 162.792969 210.324219 161.9375 213.074219 160.335938 C 218.269531 157.3125 221.765625 151.542969 222.035156 145.53125 C 222.308594 139.453125 219.539062 133.671875 216.429688 128.445312 Z M 216.429688 128.445312 "
            fill="#cb2424"
            fill-opacity="1" fill-rule="nonzero"/>
    </g>
    <g clip-path="url(#bc92f74187)">
        <g clip-path="url(#885bfb41cb)">
            <path
                d="M 196.78125 131.066406 L 196.78125 163.714844 L 178.335938 163.714844 L 178.335938 131.066406 Z M 196.78125 131.066406 "
                fill="url(#c0e29922ee)"
                fill-rule="nonzero"/>
        </g>
    </g>
    <g fill="#ffffff" fill-opacity="1">
        <g transform="translate(228.559195, 233.397817)">
            <g>
                <path
                    d="M 3.328125 5.75 L 1.71875 5.75 L 1.71875 -10.125 L 3.328125 -10.125 L 3.328125 -8.390625 C 3.421875 -8.515625 3.523438 -8.628906 3.640625 -8.734375 C 4.585938 -9.804688 5.757812 -10.34375 7.15625 -10.34375 C 8.550781 -10.34375 9.726562 -9.804688 10.6875 -8.734375 C 11.613281 -7.691406 12.078125 -6.46875 12.078125 -5.0625 C 12.078125 -3.644531 11.613281 -2.414062 10.6875 -1.375 C 9.726562 -0.300781 8.550781 0.234375 7.15625 0.234375 C 5.757812 0.234375 4.585938 -0.300781 3.640625 -1.375 C 3.523438 -1.488281 3.421875 -1.601562 3.328125 -1.71875 Z M 10.46875 -5.0625 C 10.46875 -6.039062 10.128906 -6.898438 9.453125 -7.640625 C 8.765625 -8.367188 7.914062 -8.734375 6.90625 -8.734375 C 5.882812 -8.734375 5.039062 -8.367188 4.375 -7.640625 C 3.675781 -6.898438 3.328125 -6.039062 3.328125 -5.0625 C 3.328125 -4.082031 3.675781 -3.222656 4.375 -2.484375 C 5.039062 -1.742188 5.882812 -1.375 6.90625 -1.375 C 7.914062 -1.375 8.765625 -1.742188 9.453125 -2.484375 C 10.128906 -3.222656 10.46875 -4.082031 10.46875 -5.0625 Z M 10.46875 -5.0625 "/>
            </g>
        </g>
    </g>
    <g fill="#ffffff" fill-opacity="1">
        <g transform="translate(241.664773, 233.397817)">
            <g>
                <path
                    d="M 11.609375 -5.296875 L 11.609375 -4.4375 L 2.71875 -4.4375 C 2.863281 -3.5625 3.285156 -2.847656 3.984375 -2.296875 C 4.679688 -1.734375 5.460938 -1.453125 6.328125 -1.453125 C 6.910156 -1.453125 7.46875 -1.585938 8 -1.859375 C 8.519531 -2.117188 8.957031 -2.488281 9.3125 -2.96875 L 11.15625 -2.96875 C 10.726562 -2 10.082031 -1.238281 9.21875 -0.6875 C 8.34375 -0.125 7.460938 0.15625 6.578125 0.15625 C 5.671875 0.15625 4.90625 0.0195312 4.28125 -0.25 C 3.632812 -0.53125 3.070312 -0.90625 2.59375 -1.375 C 1.550781 -2.382812 1.03125 -3.628906 1.03125 -5.109375 C 1.03125 -6.566406 1.550781 -7.816406 2.59375 -8.859375 C 3.625 -9.878906 4.867188 -10.390625 6.328125 -10.390625 C 7.734375 -10.390625 8.96875 -9.894531 10.03125 -8.90625 C 11.082031 -7.894531 11.609375 -6.691406 11.609375 -5.296875 Z M 9.90625 -5.8125 C 9.726562 -6.675781 9.300781 -7.390625 8.625 -7.953125 C 7.945312 -8.503906 7.179688 -8.78125 6.328125 -8.78125 C 5.003906 -8.78125 3.96875 -8.191406 3.21875 -7.015625 C 2.988281 -6.648438 2.828125 -6.25 2.734375 -5.8125 Z M 9.90625 -5.8125 "/>
            </g>
        </g>
    </g>
    <g fill="#ffffff" fill-opacity="1">
        <g transform="translate(254.195549, 233.397817)">
            <g>
                <path
                    d="M 6.921875 -8.03125 C 6.554688 -8.363281 6.160156 -8.53125 5.734375 -8.53125 C 5.316406 -8.53125 4.960938 -8.414062 4.671875 -8.1875 C 4.359375 -7.9375 4.101562 -7.644531 3.90625 -7.3125 C 3.519531 -6.632812 3.328125 -5.882812 3.328125 -5.0625 L 3.328125 0 L 1.71875 0 L 1.71875 -10.125 L 3.328125 -10.125 L 3.328125 -8.03125 L 3.40625 -8.4375 C 3.9375 -9.695312 4.769531 -10.328125 5.90625 -10.328125 C 6.257812 -10.328125 6.597656 -10.257812 6.921875 -10.125 Z M 6.921875 -8.03125 "/>
            </g>
        </g>
    </g>
    <g fill="#ffffff" fill-opacity="1">
        <g transform="translate(261.346138, 233.397817)">
            <g>
                <path
                    d="M 3.359375 -13.609375 C 3.554688 -13.410156 3.65625 -13.175781 3.65625 -12.90625 C 3.65625 -12.613281 3.554688 -12.367188 3.359375 -12.171875 C 3.160156 -11.972656 2.921875 -11.875 2.640625 -11.875 C 2.347656 -11.875 2.101562 -11.972656 1.90625 -12.171875 C 1.707031 -12.367188 1.609375 -12.613281 1.609375 -12.90625 C 1.609375 -13.175781 1.707031 -13.410156 1.90625 -13.609375 C 2.101562 -13.816406 2.347656 -13.921875 2.640625 -13.921875 C 2.921875 -13.921875 3.160156 -13.816406 3.359375 -13.609375 Z M 3.453125 0 L 1.84375 0 L 1.84375 -10.125 L 3.453125 -10.125 Z M 3.453125 0 "/>
            </g>
        </g>
    </g>
    <g fill="#ffffff" fill-opacity="1">
        <g transform="translate(266.611358, 233.397817)">
            <g>
                <path
                    d="M 10 -5.109375 C 10 -6.117188 9.640625 -6.984375 8.921875 -7.703125 C 8.203125 -8.421875 7.335938 -8.78125 6.328125 -8.78125 C 5.316406 -8.78125 4.445312 -8.421875 3.71875 -7.703125 C 3 -6.984375 2.640625 -6.117188 2.640625 -5.109375 C 2.640625 -4.109375 3 -3.25 3.71875 -2.53125 C 4.445312 -1.8125 5.316406 -1.453125 6.328125 -1.453125 C 7.335938 -1.453125 8.203125 -1.8125 8.921875 -2.53125 C 9.640625 -3.25 10 -4.109375 10 -5.109375 Z M 11.609375 -5.109375 C 11.609375 -3.628906 11.097656 -2.382812 10.078125 -1.375 C 9.015625 -0.351562 7.765625 0.15625 6.328125 0.15625 C 4.878906 0.15625 3.632812 -0.351562 2.59375 -1.375 C 1.550781 -2.382812 1.03125 -3.628906 1.03125 -5.109375 C 1.03125 -6.566406 1.550781 -7.816406 2.59375 -8.859375 C 3.625 -9.878906 4.867188 -10.390625 6.328125 -10.390625 C 7.785156 -10.390625 9.035156 -9.878906 10.078125 -8.859375 C 11.097656 -7.816406 11.609375 -6.566406 11.609375 -5.109375 Z M 11.609375 -5.109375 "/>
            </g>
        </g>
    </g>
    <g fill="#ffffff" fill-opacity="1">
        <g transform="translate(279.257101, 233.397817)">
            <g>
                <path
                    d="M 9.78125 -5.0625 C 9.78125 -6.039062 9.441406 -6.898438 8.765625 -7.640625 C 8.078125 -8.367188 7.222656 -8.734375 6.203125 -8.734375 C 5.191406 -8.734375 4.351562 -8.367188 3.6875 -7.640625 C 2.988281 -6.898438 2.640625 -6.039062 2.640625 -5.0625 C 2.640625 -4.082031 2.988281 -3.222656 3.6875 -2.484375 C 4.351562 -1.742188 5.191406 -1.375 6.203125 -1.375 C 7.222656 -1.375 8.078125 -1.742188 8.765625 -2.484375 C 9.441406 -3.222656 9.78125 -4.082031 9.78125 -5.0625 Z M 11.390625 0 L 9.78125 0 L 9.78125 -1.71875 C 9.6875 -1.601562 9.59375 -1.488281 9.5 -1.375 C 8.53125 -0.300781 7.347656 0.234375 5.953125 0.234375 C 4.554688 0.234375 3.382812 -0.300781 2.4375 -1.375 C 1.5 -2.414062 1.03125 -3.644531 1.03125 -5.0625 C 1.03125 -6.46875 1.5 -7.691406 2.4375 -8.734375 C 3.382812 -9.804688 4.554688 -10.34375 5.953125 -10.34375 C 7.347656 -10.34375 8.53125 -9.804688 9.5 -8.734375 C 9.59375 -8.628906 9.6875 -8.515625 9.78125 -8.390625 L 9.78125 -17.25 L 11.390625 -17.25 Z M 11.390625 0 "/>
            </g>
        </g>
    </g>
</svg>